<?xml version="1.0" encoding="UTF-8"?>
<svg id="Layer_2" data-name="Layer 2" xmlns="http://www.w3.org/2000/svg" viewBox="0 0 649 577">
  <defs>
    <style>
      .cls-1, .cls-2, .cls-3, .cls-4, .cls-5 {
        stroke-miterlimit: 10;
      }

      .cls-1, .cls-3, .cls-4 {
        stroke: #000;
      }

      .cls-2, .cls-5 {
        stroke: #fff;
      }

      .cls-2, .cls-6 {
        fill: #fff;
      }

      .cls-3 {
        stroke-width: 2px;
      }

      .cls-3, .cls-4, .cls-5 {
        fill: none;
      }

      .cls-6, .cls-7 {
        fill-rule: evenodd;
      }
    </style>
  </defs>
  <g id="Layer_1-2" data-name="Layer 1">
    <g>
      <g>
        <path class="cls-5" d="m648.5,414.01v79.08c-2.89-1.02-5.73-2.11-8.55-3.25-9.33-3.78-18.33-8.19-26.96-13.18-.01-.01-.03-.02-.04-.02s-.01-.01-.02-.01c-.23-.14-.48-.27-.71-.42-12.63-7.37-24.42-15.98-35.23-25.67-.07-.06-.14-.13-.21-.19-.03-.03-.06-.05-.09-.08-.06-.06-.13-.11-.19-.17-5.73-5.14-11.17-10.58-16.29-16.32-.05-.05-.09-.09-.13-.14-.02-.03-.05-.05-.07-.08-.22-.24-.43-.48-.65-.73-2.16-2.43-4.26-4.91-6.32-7.44,0-.01,0-.02-.02-.03-.18-.22-.35-.44-.52-.66-2.73-3.39-5.35-6.86-7.87-10.41-4.58-6.46-8.81-13.19-12.67-20.14-5.72-10.31-10.61-21.12-14.6-32.37h-97.15c-4.01,11.33-8.93,22.22-14.68,32.59-7.87,14.19-17.29,27.41-28.04,39.41-5.28,5.91-10.88,11.51-16.77,16.8l-.03-.03s-.06-.05-.09-.09c-.03-.02-.06-.05-.1-.08v.39s-.05.06-.08.07c-18.4,16.46-39.63,29.81-62.88,39.21-2.98,1.22-5.99,2.36-9.04,3.44-22.52,7.96-46.75,12.29-72,12.29H72.5V145.78H.5v-71.86h216c20.52,0,40.36,2.86,59.16,8.2,1.44.41,2.88.84,4.32,1.28.45.14.91.28,1.36.43.49.14.97.3,1.45.46,1.76.56,3.5,1.15,5.24,1.76.16.05.31.1.47.16,2.9,1.03,5.76,2.11,8.6,3.25.12.05.23.1.35.14.03.02.06.03.09.04,23.08,9.35,44.18,22.57,62.49,38.86.05.05.1.09.15.14.05.04.1.08.15.13.04.03.07.06.1.09.02.02.05.04.07.06v-.13h.01c.16.14.32.29.48.44v-55.45h215.51v216h.49v.51c0,.22.01.44.01.67v.13c0,.32.01.65.02.99,0,.11.01.21.01.32,0,.24,0,.49.02.74v.03c.01.72.03,1.45.07,2.17.02.72.05,1.44.1,2.16.03.72.07,1.44.13,2.15.04.72.09,1.43.16,2.14.23,2.85.56,5.67.96,8.47.24,1.76.53,3.5.85,5.23.1.58.21,1.16.33,1.73.1.56.21,1.12.33,1.67.12.6.25,1.19.38,1.77.12.57.25,1.14.39,1.71,1.98,8.52,4.72,16.74,8.15,24.6.33.77.67,1.55,1.03,2.33,1.7,3.8,3.64,7.65,5.84,11.53.14.24.28.49.42.73.01.03.03.05.04.08.03.05.05.09.08.14.1.17.2.35.29.51,1.93,3.33,4.06,6.67,6.39,10,3.07,4.37,6.24,8.38,9.47,12.05.1.12.21.24.31.36.03.03.05.06.08.09.02.03.05.05.07.08,4.91,5.56,9.91,10.34,14.73,14.41,4.35,3.68,8.54,6.8,12.39,9.39.9.61,1.78,1.2,2.64,1.75.03.02.06.04.09.06.88.57,1.75,1.12,2.58,1.63,1.1.69,2.15,1.31,3.15,1.9Z"/>
        <path class="cls-6" d="m648.5,414.01v79.08c-2.89-1.02-5.73-2.11-8.55-3.25-9.33-3.78-18.33-8.19-26.96-13.18-.01-.01-.03-.02-.04-.02s-.01-.01-.02-.01c-.23-.14-.48-.27-.71-.42-12.63-7.37-24.42-15.98-35.23-25.67-.07-.06-.14-.13-.21-.19-.03-.03-.06-.05-.09-.08-.06-.06-.13-.11-.19-.17-5.73-5.14-11.17-10.58-16.29-16.32-.05-.05-.09-.09-.13-.14-.02-.03-.05-.05-.07-.08-.22-.24-.43-.48-.65-.73-2.16-2.43-4.26-4.91-6.32-7.44,0-.01,0-.02-.02-.03-.18-.22-.35-.44-.52-.66-2.73-3.39-5.35-6.86-7.87-10.41-4.58-6.46-8.81-13.19-12.67-20.14-5.72-10.31-10.61-21.12-14.6-32.37h-97.15c-4.01,11.33-8.93,22.22-14.68,32.59-7.87,14.19-17.29,27.41-28.04,39.41-5.28,5.91-10.88,11.51-16.77,16.8l-.03-.03s-.06-.05-.09-.09c-.03-.02-.06-.05-.1-.08v.39s-.05.06-.08.07c-18.4,16.46-39.63,29.81-62.88,39.21-2.98,1.22-5.99,2.36-9.04,3.44-22.52,7.96-46.75,12.29-72,12.29H72.5V145.78H.5v-71.86h216c20.52,0,40.36,2.86,59.16,8.2,1.44.41,2.88.84,4.32,1.28.45.14.91.28,1.36.43.49.14.97.3,1.45.46,1.76.56,3.5,1.15,5.24,1.76.16.05.31.1.47.16,2.9,1.03,5.76,2.11,8.6,3.25.12.05.23.1.35.14.03.02.06.03.09.04,23.08,9.35,44.18,22.57,62.49,38.86.05.05.1.09.15.14.05.04.1.08.15.13.04.03.07.06.1.09.02.02.05.04.07.06v-.13h.01c.16.14.32.29.48.44v-55.45h215.51v216h.49v.51c0,.22.01.44.01.67v.13c0,.32.01.65.02.99,0,.11.01.21.01.32,0,.24,0,.49.02.74v.03c.01.72.03,1.45.07,2.17.02.72.05,1.44.1,2.16.03.72.07,1.44.13,2.15.04.72.09,1.43.16,2.14.23,2.85.56,5.67.96,8.47.24,1.76.53,3.5.85,5.23.1.58.21,1.16.33,1.73.1.56.21,1.12.33,1.67.12.6.25,1.19.38,1.77.12.57.25,1.14.39,1.71,1.98,8.52,4.72,16.74,8.15,24.6.33.77.67,1.55,1.03,2.33,1.7,3.8,3.64,7.65,5.84,11.53.14.24.28.49.42.73.01.03.03.05.04.08.03.05.05.09.08.14.1.17.2.35.29.51,1.93,3.33,4.06,6.67,6.39,10,3.07,4.37,6.24,8.38,9.47,12.05.1.12.21.24.31.36.03.03.05.06.08.09.02.03.05.05.07.08,4.91,5.56,9.91,10.34,14.73,14.41,4.35,3.68,8.54,6.8,12.39,9.39.9.61,1.78,1.2,2.64,1.75.03.02.06.04.09.06.88.57,1.75,1.12,2.58,1.63,1.1.69,2.15,1.31,3.15,1.9Z"/>
      </g>
      <line class="cls-2" x1="386.65" y1="419.95" x2="386.65" y2="419.53"/>
      <path class="cls-2" d="m339.24,419.95h-.41"/>
      <g>
        <g>
          <path class="cls-4" d="m.5.5v72h216c20.68,0,40.69,2.91,59.63,8.35,1.44.41,2.88.84,4.32,1.28.45.14.91.28,1.36.43.49.14.97.3,1.45.46,1.76.56,3.5,1.15,5.24,1.76.16.05.31.1.47.16,2.9,1.03,5.76,2.11,8.6,3.25.15.06.29.12.44.18,23.08,9.35,44.18,22.57,62.49,38.86v-54.73h216v.81h.09v216h.21v.65c0,.22.01.44.01.67v.13c0,.32.01.65.02.99,0,.11,0,.21,0,.32.01.24.01.49.02.74v.03c.01.72.03,1.45.07,2.17.02.72.05,1.44.1,2.16.03.72.07,1.44.13,2.15.04.72.09,1.43.16,2.14.23,2.85.56,5.67.96,8.47.24,1.76.53,3.5.85,5.23.1.58.21,1.16.33,1.73.1.56.21,1.12.33,1.67.12.6.25,1.19.38,1.77.12.57.25,1.14.39,1.71,1.98,8.52,4.72,16.74,8.15,24.6.33.77.67,1.55,1.03,2.33,1.7,3.8,3.64,7.65,5.84,11.53.14.24.28.49.42.73.01.03.03.05.04.08.12.21.25.44.37.65,1.93,3.33,4.06,6.67,6.39,10,3.07,4.37,6.24,8.38,9.47,12.05.13.15.26.3.39.45.02.03.05.05.07.08,4.91,5.56,9.91,10.34,14.73,14.41,4.35,3.68,8.54,6.8,12.39,9.39.9.61,1.78,1.2,2.64,1.75.03.02.06.04.09.06.88.57,1.75,1.12,2.58,1.63,1.17.73,2.28,1.39,3.34,2.01V.5H.5Z"/>
          <path class="cls-7" d="m.5.5v72h216c20.68,0,40.69,2.91,59.63,8.35,1.44.41,2.88.84,4.32,1.28.45.14.91.28,1.36.43.49.14.97.3,1.45.46,1.76.56,3.5,1.15,5.24,1.76.16.05.31.1.47.16,2.9,1.03,5.76,2.11,8.6,3.25.15.06.29.12.44.18,23.08,9.35,44.18,22.57,62.49,38.86v-54.73h216v.81h.09v216h.21v.65c0,.22.01.44.01.67v.13c0,.32.01.65.02.99,0,.11,0,.21,0,.32.01.24.01.49.02.74v.03c.01.72.03,1.45.07,2.17.02.72.05,1.44.1,2.16.03.72.07,1.44.13,2.15.04.72.09,1.43.16,2.14.23,2.85.56,5.67.96,8.47.24,1.76.53,3.5.85,5.23.1.58.21,1.16.33,1.73.1.56.21,1.12.33,1.67.12.6.25,1.19.38,1.77.12.57.25,1.14.39,1.71,1.98,8.52,4.72,16.74,8.15,24.6.33.77.67,1.55,1.03,2.33,1.7,3.8,3.64,7.65,5.84,11.53.14.24.28.49.42.73.01.03.03.05.04.08.12.21.25.44.37.65,1.93,3.33,4.06,6.67,6.39,10,3.07,4.37,6.24,8.38,9.47,12.05.13.15.26.3.39.45.02.03.05.05.07.08,4.91,5.56,9.91,10.34,14.73,14.41,4.35,3.68,8.54,6.8,12.39,9.39.9.61,1.78,1.2,2.64,1.75.03.02.06.04.09.06.88.57,1.75,1.12,2.58,1.63,1.17.73,2.28,1.39,3.34,2.01V.5H.5Z"/>
        </g>
        <path class="cls-1" d="m612.8,476.33s-.03-.02-.04-.02c-.24-.14-.49-.28-.73-.43-12.63-7.37-24.42-15.98-35.23-25.67-.07-.06-.14-.13-.21-.19-.03-.03-.06-.05-.09-.08-5.85-5.23-11.39-10.78-16.61-16.63-.02-.03-.05-.05-.07-.08-.22-.24-.43-.48-.65-.73-2.17-2.44-4.28-4.93-6.34-7.47-.18-.22-.35-.44-.52-.66-2.73-3.39-5.35-6.86-7.87-10.41-4.58-6.46-8.81-13.19-12.67-20.14-5.74-10.35-10.65-21.21-14.65-32.51h-96.82c-3.95,11.16-8.78,21.88-14.42,32.11-.08.16-.17.32-.26.48-7.69,13.87-16.87,26.82-27.33,38.6-.24.27-.48.54-.72.81-5.21,5.85-10.75,11.4-16.59,16.63-.13.12-.26.23-.39.35h0s-.06-.04-.09-.07-.06-.05-.09-.09c-17.14,15.24-36.74,27.81-58.12,37.01-.7.3-1.4.6-2.1.89-.73.3-1.45.6-2.18.89-.09.03-.16.07-.24.1-.01.01-.03.01-.04.02-.1.04-.2.08-.29.12-.68.28-1.36.55-2.05.81-.68.27-1.37.53-2.06.79-1.38.52-2.76,1.03-4.15,1.52-.07.03-.14.05-.21.08-.16.06-.31.11-.47.16-19.96,7.01-41.26,11.16-63.41,11.98-2.69.1-5.4.15-8.12.15H72.97v-.15h-.47V144.65H.97v-.15h-.47v432h648v-83.67c-2.95-1.04-5.86-2.15-8.74-3.32-9.33-3.78-18.33-8.19-26.96-13.18Z"/>
      </g>
      <line class="cls-4" x1="432.69" y1="145.21" x2="432.9" y2="145.21"/>
      <path class="cls-3" d="m157.39,433.73c-4.39,0-8.78,0-13.17-.01,0-6.39,0-12.78,0-19.17-.02-89.59-.05-179.18-.09-268.78h72c12.42,0,24.48,1.57,35.97,4.53,12.79,3.29,24.88,8.29,36.03,14.74,9.78,5.66,18.82,12.43,26.97,20.14,10.08,9.53,18.78,20.51,25.76,32.59,12.26,21.18,19.27,45.77,19.27,72s-7.02,50.82-19.27,72c-6.99,12.09-15.68,23.06-25.76,32.59-8.15,7.71-17.19,14.48-26.97,20.14-11.15,6.45-23.24,11.45-36.03,14.74-11.49,2.96-23.55,4.53-35.97,4.53-1.6,0-3.2,0-4.8,0"/>
      <g>
        <g>
          <polyline class="cls-3" points="504.79 145.21 504.79 289.21 432.79 289.21 432.79 180.24"/>
          <polyline class="cls-3" points="432.79 148.34 432.79 145.21 485.88 145.21"/>
        </g>
        <line class="cls-3" x1="504.77" y1="289.22" x2="577.81" y2="289.22"/>
      </g>
    </g>
  </g>
</svg>