<?xml version="1.0" encoding="utf-8"?>
<!-- Generator: Adobe Illustrator 27.7.0, SVG Export Plug-In . SVG Version: 6.00 Build 0)  -->
<svg version="1.1" id="Layer_2_00000075130297111910202840000007608168340832425912_"
	 xmlns="http://www.w3.org/2000/svg" xmlns:xlink="http://www.w3.org/1999/xlink" x="0px" y="0px" viewBox="0 0 1000 1393.3"
	 style="enable-background:new 0 0 1000 1393.3;" xml:space="preserve">
<style type="text/css">
	.st0{fill:#4D4D4D;}
	.st1{fill:#FFFFFF;}
	.st2{opacity:0.12;enable-background:new    ;}
	.st3{fill:none;stroke:#000000;stroke-width:14;stroke-miterlimit:10;}
	.st4{font-family:'BasicGothicPro-Bold';}
	.st5{font-size:7.6969px;}
</style>
<g id="Layer_1-2">
	<g>
		<path class="st0" d="M759.5,1056.5c0,0-0.1,0-0.1,0v0C759.4,1056.5,759.4,1056.5,759.5,1056.5L759.5,1056.5z"/>
		<path class="st0" d="M764.5,1072.6c0.2-2.3,0.4-4.7,0.5-7c-1.9,0-3.8,0-5.7,0c0,2.8,0,5.6,0,8.4
			C761.1,1073.5,762.8,1073.1,764.5,1072.6L764.5,1072.6z"/>
		<path class="st0" d="M776.6,1045.5c-5.8,0-11.5,0-17.3,0c0,1.8,0,3.5,0,5.3c4,0,8,0,12,0.1c0,0.4-0.1,0.9-0.1,1.3l0,0
			c-0.1,0.5-0.1,1.1-0.2,1.6c-0.1,0.9-0.2,1.8-0.2,2.7l0,0c0,0,0,0,0,0c-3.8,1.5-7.6,3-11.4,4.5v0.1c2.1,0,4.3,0,6.4,0.1h4.6
			c-0.1,0.8-0.1,1.6-0.2,2.4c-0.3,4-0.6,8-0.8,11.8c-3.4,1.6-6.7,3.2-10.1,4.7c0,2,0,4,0,6c4.9-2.4,9.7-4.8,14.6-7.3
			C774.8,1067.6,775.7,1056.6,776.6,1045.5L776.6,1045.5z"/>
		<path d="M743.7,1078.3C743.7,1078.3,743.7,1078.3,743.7,1078.3c-0.6-9.5-1.2-19.1-1.9-28.7
			C742.4,1059.1,743.1,1068.7,743.7,1078.3L743.7,1078.3z"/>
		<path d="M759.3,1060.9C759.3,1061,759.3,1061,759.3,1060.9L759.3,1060.9L759.3,1060.9C759.3,1060.9,759.3,1060.9,759.3,1060.9z"/>
		<path d="M759.3,1050.8C759.3,1050.8,759.3,1050.8,759.3,1050.8c0-1.8,0-3.5,0-5.3c0-0.2,0-0.4,0-0.6c-4.5,0.1-9,0.2-13.5,0.3
			c4.5,0.1,9,0.2,13.4,0.3C759.3,1047.2,759.3,1049,759.3,1050.8L759.3,1050.8z"/>
		<path d="M759.3,1074c0-2.8,0-5.6,0-8.4c0,0,0,0-0.1,0C759.3,1068.4,759.3,1071.2,759.3,1074C759.3,1074,759.3,1074,759.3,1074
			L759.3,1074z"/>
		<path d="M759.3,1056.5L759.3,1056.5C759.3,1056.5,759.3,1056.5,759.3,1056.5C759.3,1056.5,759.3,1056.5,759.3,1056.5L759.3,1056.5
			L759.3,1056.5z"/>
		<path d="M759.2,1080c0,1.9,0,3.9,0,5.8c-2.5-1.1-5-2.2-7.4-3.4c2.5,1.3,5,2.6,7.6,3.9v-0.4c0-2,0-4,0-6
			C759.3,1080,759.3,1080,759.2,1080L759.2,1080z"/>
		<path class="st1" d="M759.3,1061c0,1.5,0,3.1,0,4.6c0,0,0,0,0.1,0c1.9,0,3.8,0,5.7,0c-0.2,2.3-0.4,4.7-0.5,7
			c-1.7,0.5-3.5,0.9-5.2,1.4c0,0-0.1,0-0.1,0c0,2,0,4,0,6c0,0,0.1,0,0.1,0c3.4-1.6,6.7-3.2,10.1-4.7c0.2-3.9,0.5-7.8,0.8-11.8
			c0.1-0.8,0.1-1.6,0.2-2.4h-4.6C763.6,1061,761.5,1061,759.3,1061L759.3,1061L759.3,1061z"/>
		<path class="st1" d="M759.3,1056.5C759.3,1056.5,759.3,1056.5,759.3,1056.5c0.1,0,0.1,0,0.2,0
			C759.4,1056.5,759.4,1056.5,759.3,1056.5L759.3,1056.5c0,1.5,0,3,0,4.5c0,0,0,0,0.1,0c3.8-1.5,7.6-3,11.4-4.5c0,0,0,0,0,0l0,0
			c0.1-0.9,0.2-1.8,0.2-2.7c0.1-0.5,0.1-1.1,0.2-1.6l0,0c0-0.4,0.1-0.9,0.1-1.3c-4,0-8,0-12-0.1c0,0,0,0,0,0
			C759.3,1052.7,759.3,1054.6,759.3,1056.5L759.3,1056.5z"/>
		<path class="st2" d="M743.8,1078.8c2.7,1.2,5.3,2.4,8,3.6c-2.7-1.4-5.4-2.8-8-4.2C743.7,1078.5,743.7,1078.6,743.8,1078.8z"/>
		<path class="st2" d="M745.9,1045.2c-1.5,0-2.9-0.1-4.4-0.1c0.1,1.5,0.2,3,0.3,4.5c-0.1-1.4-0.2-2.9-0.3-4.3
			C743,1045.2,744.4,1045.2,745.9,1045.2L745.9,1045.2z"/>
		<path d="M759.2,1080C759.2,1080,759.2,1080,759.2,1080c-3.5-1.3-6.9-2.7-10.3-4.1c-0.2-2.5-0.5-4.9-0.7-7.4h4.6
			c0.1,1.5,0.3,3,0.4,4.4c1.9,0.4,3.8,0.7,5.6,1.1c0.1,0,0.3-0.1,0.4-0.1c0-2.8,0-5.6,0-8.4c-3.8,0-7.6,0-11.4,0
			c0-0.7,0-1.4-0.1-2.2c0-0.9-0.1-1.7-0.1-2.6c3.9-1.4,7.7-2.9,11.6-4.3c0,0,0,0,0-0.1c-3.9,0-7.8,0-11.7,0
			c-0.1-1.9-0.1-3.8-0.2-5.7c4,0,7.9,0,11.9,0.1c0-1.8,0-3.5,0-5.3c-4.5-0.1-9-0.2-13.4-0.3c-1.4,0-2.9,0.1-4.3,0.1
			c0.1,1.4,0.2,2.9,0.3,4.3c0.6,9.6,1.3,19.1,1.9,28.7c2.7,1.4,5.4,2.8,8,4.2c2.5,1.1,5,2.2,7.4,3.4
			C759.2,1083.9,759.2,1081.9,759.2,1080z"/>
		<path class="st2" d="M759.2,1080C759.2,1080,759.2,1080,759.2,1080c-3.5-1.3-6.9-2.7-10.3-4.1c-0.2-2.5-0.5-4.9-0.7-7.4h4.6
			c0.1,1.5,0.3,3,0.4,4.4c1.9,0.4,3.8,0.7,5.6,1.1c0.1,0,0.3-0.1,0.4-0.1c0-2.8,0-5.6,0-8.4c-3.8,0-7.6,0-11.4,0
			c0-0.7,0-1.4-0.1-2.2c0-0.9-0.1-1.7-0.1-2.6c3.9-1.4,7.7-2.9,11.6-4.3c0,0,0,0,0-0.1c-3.9,0-7.8,0-11.7,0
			c-0.1-1.9-0.1-3.8-0.2-5.7c4,0,7.9,0,11.9,0.1c0-1.8,0-3.5,0-5.3c-4.5-0.1-9-0.2-13.4-0.3c-1.4,0-2.9,0.1-4.3,0.1
			c0.1,1.4,0.2,2.9,0.3,4.3c0.6,9.6,1.3,19.1,1.9,28.7c2.7,1.4,5.4,2.8,8,4.2c2.5,1.1,5,2.2,7.4,3.4
			C759.2,1083.9,759.2,1081.9,759.2,1080z"/>
		<path d="M759.3,1061C759.3,1061,759.3,1061,759.3,1061C759.2,1061,759.2,1061,759.3,1061C759.2,1061,759.2,1061,759.3,1061z"/>
		<path class="st2" d="M759.3,1061C759.3,1061,759.3,1061,759.3,1061C759.2,1061,759.2,1061,759.3,1061
			C759.2,1061,759.2,1061,759.3,1061z"/>
		<path class="st1" d="M759.2,1061C759.2,1061,759.2,1061,759.2,1061c0.1-1.5,0.1-3,0.1-4.5c-3.9,1.4-7.7,2.9-11.6,4.3
			c0,0.9,0.1,1.7,0.1,2.6c0,0.7,0,1.4,0.1,2.2c3.8,0,7.6,0,11.4,0C759.3,1064,759.3,1062.5,759.2,1061
			C759.2,1061,759.2,1061,759.2,1061L759.2,1061z"/>
		<path class="st2" d="M759.2,1061C759.2,1061,759.2,1061,759.2,1061c0.1-1.5,0.1-3,0.1-4.5c-3.9,1.4-7.7,2.9-11.6,4.3
			c0,0.9,0.1,1.7,0.1,2.6c0,0.7,0,1.4,0.1,2.2c3.8,0,7.6,0,11.4,0C759.3,1064,759.3,1062.5,759.2,1061
			C759.2,1061,759.2,1061,759.2,1061L759.2,1061z"/>
		<path class="st1" d="M758.9,1074.1c-1.9-0.4-3.8-0.7-5.6-1.1c-0.1-1.5-0.3-3-0.4-4.4h-4.6c0.2,2.5,0.5,4.9,0.7,7.4
			c3.4,1.4,6.9,2.7,10.3,4.1c0,0,0,0,0,0c0-2,0-4,0-6C759.1,1074,759,1074.1,758.9,1074.1L758.9,1074.1z"/>
		<path class="st2" d="M758.9,1074.1c-1.9-0.4-3.8-0.7-5.6-1.1c-0.1-1.5-0.3-3-0.4-4.4h-4.6c0.2,2.5,0.5,4.9,0.7,7.4
			c3.4,1.4,6.9,2.7,10.3,4.1c0,0,0,0,0,0c0-2,0-4,0-6C759.1,1074,759,1074.1,758.9,1074.1L758.9,1074.1z"/>
		<path class="st1" d="M759.3,1050.8c-4,0-7.9,0-11.9-0.1c0.1,1.9,0.1,3.8,0.2,5.7c3.9,0,7.8,0,11.7,0
			C759.3,1054.6,759.3,1052.7,759.3,1050.8L759.3,1050.8z"/>
		<path class="st2" d="M759.3,1050.8c-4,0-7.9,0-11.9-0.1c0.1,1.9,0.1,3.8,0.2,5.7c3.9,0,7.8,0,11.7,0
			C759.3,1054.6,759.3,1052.7,759.3,1050.8L759.3,1050.8z"/>
	</g>
	<path class="st3" d="M776.9,1045.1l-35.3,0c0.8,11.2,1.5,22.5,2.3,33.8c5.1,2.5,10.2,5,15.4,7.5c5-2.5,9.9-5,14.9-7.5
		C775.1,1067.6,776,1056.4,776.9,1045.1L776.9,1045.1z"/>
	<text transform="matrix(1 0 0 1 751.9313 1042.7367)" class="st4 st5">CSS</text>
</g>
</svg>
