<?xml version="1.0" encoding="UTF-8"?>
<svg id="Layer_2" data-name="Layer 2" xmlns="http://www.w3.org/2000/svg" viewBox="0 0 74.2 103.37">
  <defs>
    <style>
      .cls-1 {
        opacity: .12;
      }

      .cls-2 {
        fill: #fff;
      }

      .cls-3 {
        fill: #4d4d4d;
      }

      .cls-4 {
        font-family: BasicGothicPro-Bold, 'Basic Gothic Pro';
        font-size: 15.73px;
        font-weight: 700;
      }

      .cls-5 {
        fill: none;
        stroke: #000;
        stroke-miterlimit: 10;
        stroke-width: 2px;
      }
    </style>
  </defs>
  <g id="Layer_1-2" data-name="Layer 1">
    <g>
      <path class="cls-3" d="m37.41,41.05c-.09,0-.17,0-.26,0v.1c.09-.03.17-.06.26-.1Z"/>
      <path class="cls-3" d="m47.79,74.09c.37-4.78.73-9.57,1.1-14.35-3.91-.02-7.83-.03-11.74-.05,0,5.72,0,11.44,0,17.16,3.55-.92,7.1-1.84,10.65-2.76Z"/>
      <path class="cls-3" d="m72.5,18.68c-11.79,0-23.57,0-35.36,0,0,3.58,0,7.17,0,10.75,8.15.05,16.3.1,24.46.15-.09.87-.18,1.74-.26,2.61l.04-.02c-.12,1.09-.24,2.17-.36,3.26-.17,1.8-.34,3.6-.51,5.42h-.09s0,.02,0,.03c-7.76,3.09-15.51,6.19-23.27,9.28v.12c4.39.04,8.77.08,13.16.12h9.39c-.13,1.6-.26,3.21-.38,4.83-.63,8.21-1.15,16.25-1.57,24.14-6.87,3.23-13.73,6.46-20.6,9.69,0,4.07,0,8.15,0,12.22,9.91-4.95,19.82-9.9,29.74-14.86,1.87-22.58,3.75-45.16,5.62-67.75Z"/>
      <path d="m5.16,85.61s.06.03.08.04c-1.3-19.55-2.59-39.11-3.89-58.66,1.27,19.54,2.54,39.08,3.81,58.62Z"/>
      <path d="m37.03,50.22s0,.05,0,.08h.11v-.12s-.07.03-.11.04Z"/>
      <path d="m37.08,29.44s.04,0,.06,0c0-3.58,0-7.17,0-10.75,0-.39,0-.77,0-1.16-9.16.18-18.32.35-27.48.53,9.15.18,18.3.37,27.45.55,0,3.61-.02,7.23-.03,10.84Z"/>
      <path d="m37.14,76.86c0-5.72,0-11.44,0-17.16-.04,0-.09,0-.13,0-.01,5.74-.03,11.47-.04,17.21.06-.02.12-.03.18-.05Z"/>
      <path d="m37.14,41.15v-.1s-.06,0-.09,0c0,.04,0,.09,0,.13l.09-.03Z"/>
      <path d="m36.94,89.16c0,3.96-.02,7.92-.03,11.87-5.07-2.29-10.15-4.58-15.22-6.87,5.15,2.67,10.3,5.33,15.45,8v-.87c0-4.07,0-8.15,0-12.22-.07.03-.14.06-.2.1Z"/>
      <path class="cls-2" d="m37.03,50.29c0,3.13-.02,6.27-.02,9.4.04,0,.09,0,.13,0,3.91.02,7.83.03,11.74.05-.37,4.78-.73,9.57-1.1,14.35-3.55.92-7.1,1.84-10.65,2.76-.06.02-.12.03-.18.05,0,4.09-.02,8.17-.03,12.26.07-.03.14-.06.2-.1,6.87-3.23,13.73-6.46,20.6-9.69.42-7.88.94-15.93,1.57-24.14.12-1.62.25-3.22.38-4.83h-9.39c-4.39-.04-8.77-.08-13.16-.12h-.11Z"/>
      <path class="cls-2" d="m37.06,41.05s.06,0,.09,0c.09,0,.17,0,.26,0-.09.03-.17.06-.26.1l-.09.03c0,3.01-.01,6.02-.02,9.03.04-.01.07-.03.11-.04,7.76-3.09,15.51-6.19,23.27-9.28,0,0,0-.02,0-.03h.09c.16-1.82.33-3.62.51-5.42.12-1.09.24-2.17.36-3.26l-.04.02c.09-.87.17-1.74.26-2.61-8.15-.05-16.3-.1-24.46-.15-.02,0-.04,0-.06,0,0,3.87-.02,7.74-.03,11.62Z"/>
      <path class="cls-1" d="m5.32,86.77c5.46,2.46,10.91,4.93,16.37,7.39-5.48-2.84-10.96-5.67-16.44-8.51l.07,1.12Z"/>
      <path class="cls-1" d="m9.66,18.05c-2.97-.06-5.94-.12-8.91-.18.2,3.04.4,6.08.6,9.12-.19-2.92-.38-5.85-.57-8.77,2.96-.06,5.91-.11,8.87-.17Z"/>
      <path d="m36.94,89.16s-.03.01-.05.02c-7.02-2.77-14.05-5.53-21.07-8.3-.48-5.03-.97-10.06-1.45-15.09h9.45c.27,3.02.55,6.05.82,9.07,3.84.75,7.69,1.5,11.53,2.24.27-.07.53-.14.8-.21.01-5.74.03-11.47.04-17.21-7.78-.03-15.56-.06-23.34-.09-.04-1.47-.07-2.94-.11-4.41-.07-1.75-.15-3.49-.22-5.24,7.9-2.92,15.81-5.85,23.71-8.77,0-.04,0-.09,0-.13-7.95-.01-15.9-.03-23.84-.04-.15-3.91-.3-7.82-.46-11.73,8.11.05,16.22.1,24.33.15,0-3.61.02-7.23.03-10.84-9.15-.18-18.3-.37-27.45-.55-2.96.06-5.91.11-8.87.17.19,2.92.38,5.85.57,8.77,1.3,19.55,2.59,39.11,3.89,58.66,5.48,2.84,10.96,5.67,16.44,8.51,5.07,2.29,10.15,4.58,15.22,6.87,0-3.96.02-7.92.03-11.87Z"/>
      <path class="cls-1" d="m36.94,89.16s-.03.01-.05.02c-7.02-2.77-14.05-5.53-21.07-8.3-.48-5.03-.97-10.06-1.45-15.09h9.45c.27,3.02.55,6.05.82,9.07,3.84.75,7.69,1.5,11.53,2.24.27-.07.53-.14.8-.21.01-5.74.03-11.47.04-17.21-7.78-.03-15.56-.06-23.34-.09-.04-1.47-.07-2.94-.11-4.41-.07-1.75-.15-3.49-.22-5.24,7.9-2.92,15.81-5.85,23.71-8.77,0-.04,0-.09,0-.13-7.95-.01-15.9-.03-23.84-.04-.15-3.91-.3-7.82-.46-11.73,8.11.05,16.22.1,24.33.15,0-3.61.02-7.23.03-10.84-9.15-.18-18.3-.37-27.45-.55-2.96.06-5.91.11-8.87.17.19,2.92.38,5.85.57,8.77,1.3,19.55,2.59,39.11,3.89,58.66,5.48,2.84,10.96,5.67,16.44,8.51,5.07,2.29,10.15,4.58,15.22,6.87,0-3.96.02-7.92.03-11.87Z"/>
      <path d="m37.03,50.29s0-.05,0-.08c-.06.02-.12.05-.19.07.06,0,.12,0,.19,0Z"/>
      <path class="cls-1" d="m37.03,50.29s0-.05,0-.08c-.06.02-.12.05-.19.07.06,0,.12,0,.19,0Z"/>
      <path class="cls-2" d="m36.85,50.29c.06-.02.12-.05.19-.07,0-3.01.01-6.02.02-9.03-7.9,2.92-15.81,5.85-23.71,8.77.07,1.75.15,3.49.22,5.24.04,1.47.07,2.94.11,4.41,7.78.03,15.56.06,23.34.09,0-3.13.02-6.27.02-9.4-.06,0-.12,0-.19,0Z"/>
      <path class="cls-1" d="m36.85,50.29c.06-.02.12-.05.19-.07,0-3.01.01-6.02.02-9.03-7.9,2.92-15.81,5.85-23.71,8.77.07,1.75.15,3.49.22,5.24.04,1.47.07,2.94.11,4.41,7.78.03,15.56.06,23.34.09,0-3.13.02-6.27.02-9.4-.06,0-.12,0-.19,0Z"/>
      <path class="cls-2" d="m36.17,77.11c-3.84-.75-7.69-1.5-11.53-2.24-.27-3.02-.55-6.05-.82-9.07h-9.45c.48,5.03.97,10.06,1.45,15.09,7.02,2.77,14.05,5.53,21.07,8.3.02,0,.03-.01.05-.02,0-4.09.02-8.17.03-12.26-.27.07-.53.14-.8.21Z"/>
      <path class="cls-1" d="m36.17,77.11c-3.84-.75-7.69-1.5-11.53-2.24-.27-3.02-.55-6.05-.82-9.07h-9.45c.48,5.03.97,10.06,1.45,15.09,7.02,2.77,14.05,5.53,21.07,8.3.02,0,.03-.01.05-.02,0-4.09.02-8.17.03-12.26-.27.07-.53.14-.8.21Z"/>
      <path class="cls-2" d="m37.08,29.44c-8.11-.05-16.22-.1-24.33-.15.15,3.91.3,7.82.46,11.73,7.95.01,15.9.03,23.84.04,0-3.87.02-7.74.03-11.62Z"/>
      <path class="cls-1" d="m37.08,29.44c-8.11-.05-16.22-.1-24.33-.15.15,3.91.3,7.82.46,11.73,7.95.01,15.9.03,23.84.04,0-3.87.02-7.74.03-11.62Z"/>
    </g>
    <path class="cls-5" d="m73.12,17.98l-72.05.07c1.56,22.99,3.13,45.97,4.69,68.96,10.46,5.09,20.92,10.17,31.38,15.26,10.12-5.09,20.24-10.17,30.36-15.26,1.87-23.01,3.74-46.02,5.61-69.03Z"/>
    <text class="cls-4" transform="translate(22.02 13.03)"><tspan x="0" y="0">CSS</tspan></text>
  </g>
</svg>