<?xml version="1.0" encoding="UTF-8"?>
<svg id="Layer_2" data-name="Layer 2" xmlns="http://www.w3.org/2000/svg" viewBox="0 0 308.73 432.52">
  <defs>
    <style>
      .cls-1 {
        opacity: .12;
      }

      .cls-2 {
        fill: #fff;
      }

      .cls-3 {
        fill: #4d4d4d;
      }

      .cls-4 {
        fill: none;
        stroke: #000;
        stroke-miterlimit: 10;
        stroke-width: 10px;
      }

      .cls-5 {
        font-family: BasicGothicPro-Bold, 'Basic Gothic Pro';
        font-size: 67.14px;
        font-weight: 700;
      }
    </style>
  </defs>
  <g id="Layer_1-2" data-name="Layer 1">
    <g>
      <path class="cls-3" d="m276.77,362.06c-41.1,20.53-82.19,41.06-123.29,61.59.01-113.91.02-227.83.03-341.74,48.84,0,97.67,0,146.51-.01-7.75,93.39-15.5,186.78-23.25,280.16Z"/>
      <path d="m21.54,358.67c44.08,22.81,88.17,45.62,132.25,68.43,0-116.67,0-233.33,0-350-50.11.96-100.23,1.92-150.34,2.88,6.03,92.9,12.06,185.79,18.09,278.69Z"/>
      <path class="cls-2" d="m240.72,163.84c1.04-13.17,2.09-26.35,3.13-39.52-66.29.81-132.58,1.63-198.86,2.44,2.43,38.76,4.86,77.52,7.29,116.29,47.68-1.11,95.36-2.22,143.05-3.33-.16,22.54-.32,45.09-.48,67.63-14.42,4.67-28.84,9.34-43.26,14-19.54-4.81-39.08-9.62-58.62-14.42-.51-13.21-1.01-26.42-1.52-39.64-13.16-.21-26.32-.43-39.48-.64,2.2,23.2,4.4,46.4,6.6,69.59,31.92,10.03,63.84,20.06,95.76,30.09,24.97-11.65,49.93-23.3,74.9-34.96,2.79-42.67,5.58-85.35,8.37-128.02-49.31-.07-98.62-.15-147.94-.22-.58-12.84-1.16-25.68-1.75-38.53,50.94-.26,101.88-.51,152.81-.77Z"/>
      <path class="cls-1" d="m22.2,363.47c43.54,19.67,87.09,39.33,130.63,59,.27-113.63.55-227.27.82-340.9-50.11-1.01-100.23-2.01-150.34-3.02,6.3,94.98,12.59,189.95,18.89,284.93Z"/>
      <text class="cls-5" transform="translate(57.57 55.63)"><tspan x="0" y="0">HTML</tspan></text>
      <path class="cls-4" d="m303.3,78.4l-297.95.28c6.46,95.06,12.93,190.12,19.39,285.17,43.26,21.03,86.53,42.07,129.79,63.1,41.85-21.03,83.7-42.07,125.55-63.1,7.74-95.15,15.48-190.3,23.22-285.45Z"/>
    </g>
  </g>
</svg>