<?xml version="1.0" encoding="UTF-8"?>
<svg id="Layer_2" data-name="Layer 2" xmlns="http://www.w3.org/2000/svg" viewBox="0 0 308.73 432.52">
  <defs>
    <style>
      .cls-1 {
        opacity: .12;
      }

      .cls-2 {
        fill: #fff;
      }

      .cls-3 {
        fill: #4d4d4d;
      }

      .cls-4 {
        fill: none;
        stroke: #000;
        stroke-miterlimit: 10;
        stroke-width: 10px;
      }

      .cls-5 {
        font-family: BasicGothicPro-Bold, 'Basic Gothic Pro';
        font-size: 67.14px;
        font-weight: 700;
      }
    </style>
  </defs>
  <g id="Layer_1-2" data-name="Layer 1">
    <g>
      <text class="cls-5" transform="translate(117.51 55.63)"><tspan x="0" y="0">JS</tspan></text>
      <g>
        <path class="cls-3" d="m276.77,362.06c-41.1,20.53-82.19,41.06-123.29,61.59.01-113.91.02-227.83.03-341.74,48.84,0,97.67,0,146.51-.01-7.75,93.39-15.5,186.78-23.25,280.16Z"/>
        <path d="m21.54,358.67c44.08,22.81,88.17,45.62,132.25,68.43,0-116.67,0-233.33,0-350-50.11.96-100.23,1.92-150.34,2.88,6.03,92.9,12.06,185.79,18.09,278.69Z"/>
        <g>
          <path class="cls-2" d="m140.63,114.15h-38.72v206.3c-10.75-3.17-21.51-6.35-32.26-9.52v-22.22c-10.75-2.12-21.51-4.23-32.26-6.35v50.78c33.34,13.75,66.68,27.51,100.02,41.26,1.08-86.75,2.15-173.5,3.23-260.25Z"/>
          <path class="cls-2" d="m263.23,155.4c2.15-13.75,4.3-27.51,6.45-41.26h-103.24v148.33c22.58-3.95,45.17-7.9,67.75-11.85v57.13c-22.58,8.46-45.17,16.93-67.75,25.39-1.08,13.75-2.15,27.51-3.23,41.26,32.26-12.7,64.53-25.39,96.79-38.09,2.15-41.26,4.3-82.52,6.45-123.78-20.43,1.06-40.87,2.12-61.3,3.17v-57.13c19.36-1.06,38.72-2.12,58.07-3.17Z"/>
        </g>
        <path class="cls-1" d="m22.2,363.47c43.54,19.67,87.09,39.33,130.63,59,.27-113.63.55-227.27.82-340.9-50.11-1.01-100.23-2.01-150.34-3.02,6.3,94.98,12.59,189.95,18.89,284.93Z"/>
        <path class="cls-4" d="m303.3,78.4l-297.95.28c6.46,95.06,12.93,190.12,19.39,285.17,43.26,21.03,86.53,42.07,129.79,63.1,41.85-21.03,83.7-42.07,125.55-63.1,7.74-95.15,15.48-190.3,23.22-285.45Z"/>
      </g>
    </g>
  </g>
</svg>