<?xml version="1.0" encoding="UTF-8"?>
<svg id="Layer_2" data-name="Layer 2" xmlns="http://www.w3.org/2000/svg" viewBox="0 0 434.1 434.1">
  <defs>
    <style>
      .cls-1, .cls-2 {
        stroke: #000;
      }

      .cls-1, .cls-2, .cls-3 {
        stroke-miterlimit: 10;
      }

      .cls-2, .cls-3 {
        fill: none;
      }

      .cls-3 {
        stroke: #fff;
      }

      .cls-4 {
        fill: #fff;
        fill-rule: evenodd;
      }
    </style>
  </defs>
  <g id="Layer_1-2" data-name="Layer 1">
    <g>
      <circle class="cls-1" cx="217.05" cy="217.05" r="216.55"/>
      <g>
        <path class="cls-3" d="m419.07,296.17v48.88c-1.79-.63-3.54-1.3-5.28-2.01-5.77-2.34-11.33-5.06-16.66-8.15,0,0-.02-.01-.02-.01s0,0-.01,0c-.14-.09-.3-.17-.44-.26-7.81-4.56-15.09-9.88-21.78-15.87-.04-.04-.09-.08-.13-.12-.02-.02-.04-.03-.06-.05-.04-.04-.08-.07-.12-.11-3.54-3.18-6.9-6.54-10.07-10.09-.03-.03-.06-.06-.08-.09-.01-.02-.03-.03-.04-.05-.14-.15-.27-.3-.4-.45-1.34-1.5-2.63-3.03-3.91-4.6,0,0,0-.01-.01-.02-.11-.14-.22-.27-.32-.41-1.69-2.1-3.31-4.24-4.86-6.43-2.83-3.99-5.45-8.15-7.83-12.45-3.54-6.37-6.56-13.05-9.02-20.01h-60.05c-2.48,7-5.52,13.73-9.07,20.14-4.86,8.77-10.69,16.94-17.33,24.36-3.26,3.65-6.72,7.11-10.37,10.38l-.02-.02s-.04-.03-.06-.06c-.02-.01-.04-.03-.06-.05v.24s-.03.04-.05.04c-11.37,10.17-24.49,18.43-38.86,24.23-1.84.75-3.7,1.46-5.59,2.13-13.92,4.92-28.9,7.6-44.5,7.6H63.06v-222.51H18.56v-44.42h133.51c12.68,0,24.95,1.77,36.57,5.07.89.25,1.78.52,2.67.79.28.09.56.17.84.27.3.09.6.19.9.28,1.09.35,2.16.71,3.24,1.09.1.03.19.06.29.1,1.79.64,3.56,1.3,5.32,2.01.07.03.14.06.22.09.02.01.04.02.06.02,14.27,5.78,27.31,13.95,38.62,24.02.03.03.06.06.09.09.03.02.06.05.09.08.02.02.04.04.06.06.01.01.03.02.04.04v-.08h0c.1.09.2.18.3.27v-34.27h133.2v133.51h.3v.32c0,.14,0,.27,0,.41v.08c0,.2,0,.4.01.61,0,.07,0,.13,0,.2,0,.15,0,.3.01.46v.02c0,.45.02.9.04,1.34.01.45.03.89.06,1.34.02.45.04.89.08,1.33.02.45.06.88.1,1.32.14,1.76.35,3.5.59,5.24.15,1.09.33,2.16.53,3.23.06.36.13.72.2,1.07.06.35.13.69.2,1.03.07.37.15.74.23,1.09.07.35.15.7.24,1.06,1.22,5.27,2.92,10.35,5.04,15.2.2.48.41.96.64,1.44,1.05,2.35,2.25,4.73,3.61,7.13.09.15.17.3.26.45,0,.02.02.03.02.05.02.03.03.06.05.09.06.11.12.22.18.32,1.19,2.06,2.51,4.12,3.95,6.18,1.9,2.7,3.86,5.18,5.85,7.45.06.07.13.15.19.22.02.02.03.04.05.06.01.02.03.03.04.05,3.03,3.44,6.13,6.39,9.1,8.91,2.69,2.27,5.28,4.2,7.66,5.8.56.38,1.1.74,1.63,1.08.02.01.04.02.06.04.54.35,1.08.69,1.59,1.01.68.43,1.33.81,1.95,1.17Z"/>
        <path class="cls-4" d="m419.07,296.17v48.88c-1.79-.63-3.54-1.3-5.28-2.01-5.77-2.34-11.33-5.06-16.66-8.15,0,0-.02-.01-.02-.01s0,0-.01,0c-.14-.09-.3-.17-.44-.26-7.81-4.56-15.09-9.88-21.78-15.87-.04-.04-.09-.08-.13-.12-.02-.02-.04-.03-.06-.05-.04-.04-.08-.07-.12-.11-3.54-3.18-6.9-6.54-10.07-10.09-.03-.03-.06-.06-.08-.09-.01-.02-.03-.03-.04-.05-.14-.15-.27-.3-.4-.45-1.34-1.5-2.63-3.03-3.91-4.6,0,0,0-.01-.01-.02-.11-.14-.22-.27-.32-.41-1.69-2.1-3.31-4.24-4.86-6.43-2.83-3.99-5.45-8.15-7.83-12.45-3.54-6.37-6.56-13.05-9.02-20.01h-60.05c-2.48,7-5.52,13.73-9.07,20.14-4.86,8.77-10.69,16.94-17.33,24.36-3.26,3.65-6.72,7.11-10.37,10.38l-.02-.02s-.04-.03-.06-.06c-.02-.01-.04-.03-.06-.05v.24s-.03.04-.05.04c-11.37,10.17-24.49,18.43-38.86,24.23-1.84.75-3.7,1.46-5.59,2.13-13.92,4.92-28.9,7.6-44.5,7.6H63.06v-222.51H18.56v-44.42h133.51c12.68,0,24.95,1.77,36.57,5.07.89.25,1.78.52,2.67.79.28.09.56.17.84.27.3.09.6.19.9.28,1.09.35,2.16.71,3.24,1.09.1.03.19.06.29.1,1.79.64,3.56,1.3,5.32,2.01.07.03.14.06.22.09.02.01.04.02.06.02,14.27,5.78,27.31,13.95,38.62,24.02.03.03.06.06.09.09.03.02.06.05.09.08.02.02.04.04.06.06.01.01.03.02.04.04v-.08h0c.1.09.2.18.3.27v-34.27h133.2v133.51h.3v.32c0,.14,0,.27,0,.41v.08c0,.2,0,.4.01.61,0,.07,0,.13,0,.2,0,.15,0,.3.01.46v.02c0,.45.02.9.04,1.34.01.45.03.89.06,1.34.02.45.04.89.08,1.33.02.45.06.88.1,1.32.14,1.76.35,3.5.59,5.24.15,1.09.33,2.16.53,3.23.06.36.13.72.2,1.07.06.35.13.69.2,1.03.07.37.15.74.23,1.09.07.35.15.7.24,1.06,1.22,5.27,2.92,10.35,5.04,15.2.2.48.41.96.64,1.44,1.05,2.35,2.25,4.73,3.61,7.13.09.15.17.3.26.45,0,.02.02.03.02.05.02.03.03.06.05.09.06.11.12.22.18.32,1.19,2.06,2.51,4.12,3.95,6.18,1.9,2.7,3.86,5.18,5.85,7.45.06.07.13.15.19.22.02.02.03.04.05.06.01.02.03.03.04.05,3.03,3.44,6.13,6.39,9.1,8.91,2.69,2.27,5.28,4.2,7.66,5.8.56.38,1.1.74,1.63,1.08.02.01.04.02.06.04.54.35,1.08.69,1.59,1.01.68.43,1.33.81,1.95,1.17Z"/>
      </g>
      <line class="cls-2" x1="286.52" y1="130.15" x2="286.65" y2="130.15"/>
      <g>
        <path class="cls-3" d="m44.25,86.14h108.82c12.67,0,24.91,1.77,36.52,5.06.89.25,1.78.52,2.67.79.28.09.56.17.84.27.3.09.6.19.9.28,1.09.35,2.16.71,3.23,1.09.1.03.19.06.29.1,1.79.64,3.56,1.3,5.31,2.01.07.03.14.06.22.09.02.01.04.02.06.02,14.25,5.77,27.27,13.93,38.57,23.99.03.03.06.06.09.09.03.02.06.05.09.08.02.02.04.04.06.06.01.01.03.02.04.04v-.08h0c.1.09.2.18.3.27v-34.23h133.03v133.33h.3v.31c0,.14,0,.27,0,.41v.08c0,.2,0,.4.01.61,0,.07,0,.13,0,.2,0,.15,0,.3.01.46v.02c0,.44.02.9.04,1.34.01.44.03.89.06,1.33.02.44.04.89.08,1.33.02.44.06.88.1,1.32.14,1.76.35,3.5.59,5.23.15,1.09.33,2.16.52,3.23.06.36.13.72.2,1.07.06.35.13.69.2,1.03.07.37.15.73.23,1.09.07.35.15.7.24,1.06,1.22,5.26,2.91,10.33,5.03,15.19.2.48.41.96.64,1.44,1.05,2.35,2.25,4.72,3.6,7.12.09.15.17.3.26.45,0,.02.02.03.02.05.02.03.03.06.05.09.06.1.12.22.18.31,1.19,2.06,2.51,4.12,3.94,6.17,1.9,2.7,3.85,5.17,5.85,7.44.06.07.13.15.19.22.02.02.03.04.05.06.01.02.03.03.04.05,3.03,3.43,6.12,6.38,9.09,8.9,2.69,2.27,5.27,4.2,7.65,5.8.56.38,1.1.74,1.63,1.08.02.01.04.02.06.04.77.51,1.25.79,1.59,1.01.31.2.76.49,1.28.91"/>
        <path class="cls-3" d="m398.97,335.4c-.39-.22-.77-.44-1.16-.66,0,0-.02-.01-.02-.01s0,0-.01,0c-.14-.09-.3-.17-.44-.26-7.8-4.55-15.07-9.86-21.75-15.85-.04-.04-.09-.08-.13-.12-.02-.02-.04-.03-.06-.05-.04-.04-.08-.07-.12-.1-3.54-3.17-6.9-6.53-10.06-10.07-.03-.03-.06-.06-.08-.09-.01-.02-.03-.03-.04-.05-.14-.15-.27-.3-.4-.45-1.33-1.5-2.63-3.03-3.9-4.59,0,0,0-.01-.01-.02-.11-.14-.22-.27-.32-.41-1.69-2.09-3.3-4.23-4.86-6.43-2.83-3.99-5.44-8.14-7.82-12.43-3.53-6.36-6.55-13.04-9.01-19.98h-59.97c-2.48,6.99-5.51,13.72-9.06,20.12-4.86,8.76-10.67,16.92-17.31,24.33-3.26,3.65-6.72,7.1-10.35,10.37l-.02-.02s-.04-.03-.06-.06c-.02-.01-.04-.03-.06-.05v.24s-.03.04-.05.04c-11.36,10.16-24.46,18.4-38.81,24.2-1.84.75-3.7,1.46-5.58,2.12-13.9,4.91-28.86,7.59-44.44,7.59h-88.89v-222.22H18.56"/>
      </g>
      <g>
        <path class="cls-2" d="m116.58,308.25c-2.71,0-5.42,0-8.13,0,0-3.94,0-7.89,0-11.83-.01-55.3-.03-110.6-.06-165.91h44.44c7.67,0,15.11.97,22.2,2.8,7.9,2.03,15.36,5.12,22.24,9.1,6.04,3.49,11.62,7.67,16.65,12.43,6.22,5.88,11.59,12.66,15.9,20.12,7.57,13.07,11.9,28.25,11.9,44.44s-4.33,31.37-11.9,44.44c-4.31,7.46-9.68,14.23-15.9,20.12-5.03,4.76-10.61,8.94-16.65,12.43-6.88,3.98-14.35,7.07-22.24,9.1-7.09,1.83-14.54,2.8-22.2,2.8-.99,0-1.97,0-2.96,0"/>
        <g>
          <g>
            <polyline class="cls-2" points="331.03 130.15 331.03 219.04 286.58 219.04 286.58 151.77"/>
            <polyline class="cls-2" points="286.58 132.07 286.58 130.15 319.35 130.15"/>
          </g>
          <line class="cls-2" x1="331.01" y1="219.04" x2="376.1" y2="219.04"/>
        </g>
      </g>
    </g>
  </g>
</svg>